/* XPM */
static char * dc_xpm[] = {
"50 47 2 1",
"      c None",
"1     c #804000",
"                    111                           ",
"                    111                           ",
"                    111                           ",
"                    111                           ",
"                    111                           ",
"                    111                           ",
"                    111                           ",
"                    111                           ",
"                    111                           ",
"                    111                           ",
"                    111                           ",
"                    111                           ",
"                    111                           ",
"                    111                           ",
"                    111                           ",
"                    111                           ",
"                    111                           ",
"                    111                           ",
"                    111                           ",
"                    111                           ",
"                    111                           ",
"                    111                           ",
"                    111                           ",
"                    111                           ",
"                    111                           ",
"                    111                           ",
"                    111                           ",
"                    111                           ",
"                    111                           ",
"                    111                           ",
"                    111                           ",
"                    111                           ",
"                    111                           ",
"                    111                           ",
"                    111                           ",
"                    111                           ",
"                    111                           ",
"                    111                           ",
"                    111                           ",
"                    111                           ",
"                    111                           ",
"                    111                           ",
"                    111                           ",
"                    111                           ",
"                    111                           ",
"                    111                           ",
"                    111                           "};
