/* XPM */
static char * dt_xpm[] = {
"50 47 2 1",
"      c None",
"1     c #804000",
"                    111                           ",
"                    111                           ",
"                    111                           ",
"                    111                           ",
"                    111                           ",
"                    111                           ",
"                    111                           ",
"                    111                           ",
"                    111                           ",
"                    111                     1     ",
"                    111                     111   ",
"                    11111111111111111111111111111 ",
"                    111111111111111111111111111111",
"                    11111111111111111111111111111 ",
"                    111                     111   ",
"                    111                     1     ",
"                    111                           ",
"                    111                           ",
"                    111                           ",
"                    111                           ",
"                    111                           ",
"                    111                           ",
"                    111                           ",
"                    111                           ",
"                    111                           ",
"                    111                           ",
"                    111                           ",
"                    111                           ",
"                    111                           ",
"                    111                           ",
"                    111                           ",
"                    111                           ",
"                    111                           ",
"                    111                           ",
"                    111                           ",
"                    111                           ",
"                    111                           ",
"                    111                           ",
"                    111                           ",
"                    111                           ",
"                    111                           ",
"                    111                           ",
"                    111                           ",
"                    111                           ",
"                    111                           ",
"                    111                           ",
"                    111                           "};
