/* XPM */
static char * pd_xpm[] = {
"50 26 2 1",
"      c None",
"1     c #FF0000",
"                    111                           ",
"                    111                           ",
"                    111                           ",
"                    111                           ",
"                    111                           ",
"                    111                           ",
"                    111                           ",
"                    111                           ",
"                    111                           ",
"                    111                           ",
"                    111                           ",
"                    111                           ",
"                    111                           ",
"                    111                           ",
"                    111                           ",
"                    111                           ",
"                    111                           ",
"                    111                           ",
"                    111                           ",
"                    111                           ",
"                    111                           ",
"                    111                           ",
"                    111                           ",
"                    111                           ",
"                    111                           ",
"                    111                           "};
