/* XPM */
static const char * pe_xpm[] = {
"50 26 2 1",
"      c None",
"1     c #FF0000",
"                    111                           ",
"                    111                           ",
"                    111                           ",
"                    111                           ",
"                    111                           ",
"                    111                           ",
"                    111                           ",
"                    111                           ",
"                    111                           ",
"                    111                     1     ",
"                    111                     111   ",
"                    11111111111111111111111111111 ",
"                    111111111111111111111111111111",
"                    11111111111111111111111111111 ",
"                                            111   ",
"                                            1     ",
"                                                  ",
"                                                  ",
"                                                  ",
"                                                  ",
"                                                  ",
"                                                  ",
"                                                  ",
"                                                  ",
"                                                  ",
"                                                  "};
