/* XPM */
static const char * pt_xpm[] = {
"50 26 2 1",
"      c None",
"1     c #0000FF",
"                                                  ",
"                                                  ",
"                                                  ",
"                                                  ",
"                                                  ",
"                                                  ",
"                                                  ",
"                                                  ",
"                                                  ",
"                                            1     ",
"                                            111   ",
"                    11111111111111111111111111111 ",
"                    111111111111111111111111111111",
"                    11111111111111111111111111111 ",
"                    111                     111   ",
"                    111                     1     ",
"                    111                           ",
"                    111                           ",
"                    111                           ",
"                    111                           ",
"                    111                           ",
"                    111                           ",
"                    111                           ",
"                    111                           ",
"                    111                           ",
"                    111                           "};
