/* XPM */
static char * pu_xpm[] = {
"50 26 2 1",
"      c None",
"1     c #0000FF",
"                    111                           ",
"                    111                           ",
"                    111                           ",
"                    111                           ",
"                    111                           ",
"                    111                           ",
"                    111                           ",
"                    111                           ",
"                    111                           ",
"                    111                           ",
"                    111                           ",
"                    111                           ",
"                    111                           ",
"                    111                           ",
"                    111                           ",
"                    111                           ",
"                    111                           ",
"                    111                           ",
"                    111                           ",
"                    111                           ",
"                    111                           ",
"                    111                           ",
"                    111                           ",
"                    111                           ",
"                    111                           ",
"                    111                           "};
