/* XPM */
static const char * dcht_xpm[] = {
"32 26 6 1",
"      c None",
"1     c #804000",
"2     c #E0A0C0",
"4     c #C0DCC0",
"5     c #A6CAF0",
"6     c #E0E080",
"                                ",
"    1111111111111               ",
"    1444444444441               ",
"    1444444444441               ",
"    1444444444441               ",
"    11111111111111111           ",
"      1  122222222221           ",
"      111122222222221           ",
"      1  122222222221           ",
"      1  1111111111111111       ",
"      1   1  166666666661       ",
"      1   111166666666661       ",
"      1      166666666661       ",
"      1  1111111111111111       ",
"      1  1222222222221          ",
"      1111222222222221          ",
"         1222222222221          ",
"         111111111111111111     ",
"          1  16666666666661     ",
"          11116666666666661     ",
"             16666666666661     ",
"             111111111111111111 ",
"              1  15555555555551 ",
"              11115555555555551 ",
"                 15555555555551 ",
"                 11111111111111 "};
