/* XPM */
static const char * dcht_xpm[] = {
"32 18 5 1",
"      c None",
"1     c #804000",
"2     c #E0A0C0",
"4     c #C0DCC0",
"6     c #E0E080",
"                                ",
"    11111111111111111           ",
"    14444444444444441           ",
"    14444444444444441           ",
"    14444444444444441           ",
"    111111111111111111111       ",
"      1  1222222222222221       ",
"      1111222222222222221       ",
"      1  1222222222222221       ",
"      1  111111111111111111     ",
"      1  122222222222222221     ",
"      111122222222222222221     ",
"         122222222222222221     ",
"         1111111111111111111111 ",
"          1  166666666666666661 ",
"          111166666666666666661 ",
"             166666666666666661 ",
"             111111111111111111 "
};
