/* XPM */
static const char * edit_xpm[] = {
/* columns rows colors chars-per-pixel */
"16 15 3 1",
". c Black",
"X c #FB9204",
"  c None",
/* pixels */
"                ",
" .............  ",
" .XXXXXXXXXXX.  ",
" .XXXXXXXXXXX.  ",
" .XXX.........  ",
" .XXX.          ",
" .XXX.......    ",
" .XXXXXXXXX.    ",
" .XXXXXXXXX.    ",
" .XXX.......    ",
" .XXX.          ",
" .XXX.........  ",
" .XXXXXXXXXXX.  ",
" .XXXXXXXXXXX.  ",
" .............  "
};
