/* XPM */
static const char * event_xpm[] = {
/* columns rows colors chars-per-pixel */
"16 15 5 1",
". c Black",
"X c Blue",
"Y c Red",
"G c Green",
"  c None",
/* pixels */
"       .X....   ",
"       .XXXXX.  ",
"       .X....   ",
"      .Y.       ",
"      .Y.       ",
"     .YYY.      ",
"     .YYY.      ",
"    .YYYYY.     ",
"    .YYYYY.     ",
"   .YYYYYYY.    ",
" GG.YYY YYY.GGGG",
" GG.YYY YYY.GGGG",
" GG.YYY  YY.GGGG",
" GG.YYY  YY.GGGG",
" GGGGGGGGGGGGGGG"
};
