/* XPM */
static const char * findevent_xpm[] = {
/* columns rows colors chars-per-pixel */
"16 15 45 1",
"  c None",
"# c #C0D1DC",
"$ c #B5CAD7",
"% c #81A3B9",
"& c #8FB0C3",
"* c #62B4DD",
"+ c #98B3C6",
", c #81CCEB",
"- c #71C5E7",
"0 c #E9F4FB",
"1 c #5A89A6",
"2 c #CAD6E1",
"3 c #DEF1FA",
"4 c #EAF6FC",
"5 c #D3ECF8",
"6 c #8AD0EE",
"7 c #EFF8FC",
"8 c #FDFDFE",
"9 c #A7DAF2",
": c #B9CBD5",
"; c #AFD1DE",
"< c #91D2EF",
"= c #4CBCE3",
"> c #35B4E1",
"@ c #A0BACB",
"a c #E6DED2",
"b c #AABFCD",
"c c #85A7BC",
"d c #DB916B",
"e c #BCD9EF",
"f c #ACC4D3",
"i c #6591AE",
"o c #749BB4",
"p c #8EA9BC",
"q c #AEC9D7",
"r c #B6D5EE",
"s c #D8BCA4",
"t c #6B98B8",
"u c #C2CBDB",
"w c #B6E0F4",
"y c #A06959",
". c Black",
"X c Blue",
"Y c Red",
"G c Green",
/* pixels */
"       fcoocb   ",
"      +@###$+%  ",
"     f&#*==-;@@ ",
"     o:*>,<--:c ",
"     12>-345-#% ",
"     12>678392% ",
"     %$*,3059q& ",
"    .@bq,wwer@@ ",
"    .Yt@q22q&+  ",
"   .yyui+%o%p   ",
" GGyasy YYY.GGGG",
" Gyasdy YYY.GGGG",
" yasdyY  YY.GGGG",
" ysdyYY  YY.GGGG",
" GyyGGGGGGGGGGGG"
};
