/* XPM */
static const char * ind_xpm[] = {
/* columns rows colors chars-per-pixel */
"16 15 3 1",
". c Black",
"X c #FF8040",
"  c None",
/* pixels */
"      ...       ",
"     .XXX.      ",
"    .XXXXX.     ",
"    .XXXXX.     ",
"     .XXX.      ",
"      ...       ",
"     .....      ",
"   ..XXXXX..    ",
"  .XXXXXXXXX.   ",
" .XXXXXXXXXXX.  ",
" .XXXXXXXXXXX.  ",
" .XXXXXXXXXXX.  ",
" .XXXXXXXXXXX.  ",
" .XXXXXXXXXXX.  ",
" .XXXXXXXXXXX.  "
};
