/* XPM */
static const char * menu_xpm[] = {
/* columns rows colors chars-per-pixel */
"16 15 3 1",
". c Black",
"X c #FB9204",
"  c None",
/* pixels */
"     .....      ",
"     .XXX.      ",
"     .XXX.      ",
"     .XXX.      ",
"     .XXX.      ",
"......XXX...... ",
".XXXXXXXXXXXXX. ",
".XXXXXXXXXXXXX. ",
".XXXXXXXXXXXXX. ",
"......XXX...... ",
"     .XXX.      ",
"     .XXX.      ",
"     .XXX.      ",
"     .XXX.      ",
"     .....      ",
};
