/* XPM */
static const char * pcht_xpm[] = {
"32 18 7 1",
"      c None",
"1     c #800000",
"2     c #C0DCC0",
"3     c #0000FF",
"4     c #FF0000",
"5     c #E0A0C0",
"6     c #E0E080",
"                                ",
"          111111111111111       ",
"          155555555555551       ",
"      3333155555555555551       ",
"      3   155555555555551       ",
"      3   111111111111111111111 ",
"      3     4   166666666666661 ",
"      3     4444166666666666661 ",
"      3         166666666666661 ",
"    111111111111111111111111111 ",
"    122222222222221             ",
"    122222222222221             ",
"    122222222222221             ",
"    111111111111111111111       ",
"      4   155555555555551       ",
"      4444155555555555551       ",
"          155555555555551       ",
"          111111111111111       "
};
