/* XPM */
static const char * tfp_xpm[] = {
/* columns rows colors chars-per-pixel */
"32 32 2 1",
"# c red",
"  c None",
/* pixels */
"                                ",
"                                ",
" ############                   ",
" ############                   ",
" ##   ##   ##                   ",
" #    ##    #                   ",
"      ##                        ",
"      ##                        ",
"      ## ###########            ",
"      ##  ##########            ",
"      ##   ##     ##            ",
"      ##   ##      #            ",
"      ##   ##                   ",
"      ##   ##    #              ",
"      ##   ##   ## ##########   ",
"      ##   #######  ##########  ",
"     ####  #######   ##     ### ",
"    ###### ##   ##   ##      ## ",
"           ##    #   ##      ## ",
"           ##        ##      ## ",
"           ##        ##     ### ",
"           ##        #########  ",
"          ####       ########   ",
"         ######      ##         ",
"                     ##         ",
"                     ##         ",
"                     ##         ",
"                     ##         ",
"                    ####        ",
"                   ######       ",
"                                ",
"                                "
};
